<?xml version="1.0" encoding="UTF-8"?><svg id="b" xmlns="http://www.w3.org/2000/svg" xmlns:xlink="http://www.w3.org/1999/xlink" viewBox="0 0 535.83 533.36"><defs><style>.ab{fill:rgba(62,39,35,.15);}.ac{clip-path:url(#t);}.ad{clip-path:url(#i);}.ae{fill:rgba(255,255,255,.1);}.af{clip-path:url(#x);}.ag{clip-path:url(#k);}.ah{fill:url(#w);}.ai{clip-path:url(#m);}.aj{clip-path:url(#f);}.ak{fill:#3e2723;isolation:isolate;opacity:.1;}.al{clip-path:url(#j);}.am{fill:rgba(62,39,35,.2);}.an{fill:url(#l);}.ao{fill:url(#h);}.ap{fill:#4285f4;}.aq{fill:#ffcd40;}.ar{fill:none;}.as{fill:url(#q);}.at{clip-path:url(#p);}.au{fill:url(#aa);}.av{clip-path:url(#o);}.aw{clip-path:url(#v);}.ax{clip-path:url(#n);}.ay{fill:#f1f1f1;}.az{fill:url(#e);}.ba{clip-path:url(#r);}.bb{clip-path:url(#s);}.bc{clip-path:url(#g);}.bd{clip-path:url(#z);}.be{clip-path:url(#d);}.bf{fill:#0f9d58;}.bg{fill:#db4437;}.bh{fill:url(#u);}.bi{clip-path:url(#y);}.bj{fill:rgba(255,255,255,.2);}.bk{fill:rgba(38,50,56,.15);}</style><clipPath id="d"><circle class="ar" cx="269.17" cy="266.67" r="266.67"/></clipPath><linearGradient id="e" x1="-155.27" y1="530.77" x2="-102.77" y2="561.44" gradientTransform="translate(537.66 1811.49) scale(3.03 -3.03)" gradientUnits="userSpaceOnUse"><stop offset="0" stop-color="#a52714" stop-opacity=".6"/><stop offset=".66" stop-color="#a52714" stop-opacity="0"/></linearGradient><clipPath id="f"><circle class="ar" cx="269.17" cy="266.67" r="266.67"/></clipPath><clipPath id="g"><circle class="ar" cx="269.17" cy="266.67" r="266.67"/></clipPath><linearGradient id="h" x1="-73.73" y1="441.29" x2="-132.07" y2="475.46" gradientTransform="translate(537.66 1811.49) scale(3.03 -3.03)" gradientUnits="userSpaceOnUse"><stop offset="0" stop-color="#055524" stop-opacity=".4"/><stop offset=".33" stop-color="#055524" stop-opacity="0"/></linearGradient><clipPath id="i"><circle class="ar" cx="269.17" cy="266.67" r="266.67"/></clipPath><clipPath id="j"><circle class="ar" cx="269.17" cy="266.67" r="266.67"/></clipPath><clipPath id="k"><polygon class="ar" points="2.5 533.33 256.35 533.33 374.17 415.52 374.17 327.27 164.2 327.27 2.5 49.94 2.5 533.33"/></clipPath><linearGradient id="l" x1="-62.75" y1="555.99" x2="-48.06" y2="491.66" gradientTransform="translate(537.66 1811.49) scale(3.03 -3.03)" gradientUnits="userSpaceOnUse"><stop offset="0" stop-color="#ea6100" stop-opacity=".3"/><stop offset=".66" stop-color="#ea6100" stop-opacity="0"/></linearGradient><clipPath id="m"><circle class="ar" cx="269.17" cy="266.67" r="266.67"/></clipPath><clipPath id="n"><circle class="ar" cx="269.17" cy="266.67" r="266.67"/></clipPath><clipPath id="o"><polygon class="ar" points="269.17 145.45 374.17 327.27 256.35 533.33 535.83 533.33 535.83 145.45 269.17 145.45"/></clipPath><clipPath id="p"><circle class="ar" cx="269.17" cy="266.67" r="266.67"/></clipPath><radialGradient id="q" cx="483.58" cy="549.84" fx="483.58" fy="549.84" r="84.08" gradientTransform="translate(-1207.79 1811.49) scale(3.03 -3.03)" gradientUnits="userSpaceOnUse"><stop offset="0" stop-color="#3e2723" stop-opacity=".2"/><stop offset="1" stop-color="#3e2723" stop-opacity="0"/></radialGradient><clipPath id="r"><circle class="ar" cx="269.17" cy="266.67" r="266.67"/></clipPath><clipPath id="s"><polygon class="ar" points="44.83 0 44.83 122.24 164.2 327.27 269.17 145.45 535.83 145.45 535.83 0 44.83 0"/></clipPath><clipPath id="t"><circle class="ar" cx="269.17" cy="266.67" r="266.67"/></clipPath><radialGradient id="u" cx="413.28" cy="557.27" fx="413.28" fy="557.27" r="78.04" xlink:href="#q"/><clipPath id="v"><circle class="ar" cx="269.17" cy="266.67" r="266.67"/></clipPath><radialGradient id="w" cx="487.24" cy="509.65" fx="487.24" fy="509.65" r="87.87" gradientTransform="translate(-1207.79 1811.49) scale(3.03 -3.03)" gradientUnits="userSpaceOnUse"><stop offset="0" stop-color="#263238" stop-opacity=".2"/><stop offset="1" stop-color="#263238" stop-opacity="0"/></radialGradient><clipPath id="x"><circle class="ar" cx="269.17" cy="266.67" r="266.67"/></clipPath><clipPath id="y"><circle class="ar" cx="269.17" cy="266.67" r="266.67"/></clipPath><clipPath id="z"><circle class="ar" cx="269.17" cy="266.67" r="266.67"/></clipPath><radialGradient id="aa" cx="-151.14" cy="573.78" fx="-151.14" fy="573.78" r="176.75" gradientTransform="translate(537.66 1811.49) scale(3.03 -3.03)" gradientUnits="userSpaceOnUse"><stop offset="0" stop-color="#fff" stop-opacity=".1"/><stop offset="1" stop-color="#fff" stop-opacity="0"/></radialGradient></defs><g id="c"><g class="be"><path class="bg" d="M44.83,0v327.27h119.36l104.97-181.82h266.67V0H44.83Z"/><path class="az" d="M44.83,0v327.27h119.36l104.97-181.82h266.67V0H44.83Z"/></g><g class="aj"><path class="ab" d="M167.08,326.21L46.38,119.21l-1.76,3.03,119.82,205.45,2.64-1.48Z"/></g><g class="bc"><path class="bf" d="M2.5,533.33h253.85l117.82-117.82v-88.24h-209.97L2.5,49.94v483.39Z"/><path class="ao" d="M2.5,533.33h253.85l117.82-117.82v-88.24h-209.97L2.5,49.94v483.39Z"/></g><g class="ad"><path class="bk" d="M371.71,331.3l-2.52-1.45-116.33,203.48h3.48l115.45-201.94-.09-.09Z"/></g><g class="al"><g class="ag"><path class="aq" d="M269.17,145.45l105,181.82-117.82,206.06h279.48V145.45h-266.67Z"/><path class="an" d="M269.17,145.45l105,181.82-117.82,206.06h279.48V145.45h-266.67Z"/></g></g><g class="ai"><path class="aq" d="M269.17,145.45l105,181.82-117.82,206.06h279.48V145.45h-266.67Z"/><path class="an" d="M269.17,145.45l105,181.82-117.82,206.06h279.48V145.45h-266.67Z"/></g><g class="ax"><g class="av"><path class="bg" d="M44.83,0v327.27h119.36l104.97-181.82h266.67V0H44.83Z"/><path class="az" d="M44.83,0v327.27h119.36l104.97-181.82h266.67V0H44.83Z"/></g></g><g class="at"><path class="as" d="M269.17,145.45v63.48l237.58-63.48h-237.58Z"/></g><g class="ba"><g class="bb"><path class="bf" d="M2.5,533.33h253.85l117.82-117.82v-88.24h-209.97L2.5,49.94v483.39Z"/><path class="ao" d="M2.5,533.33h253.85l117.82-117.82v-88.24h-209.97L2.5,49.94v483.39Z"/></g></g><g class="ac"><path class="bh" d="M44.83,122.58l173.48,173.45-54.12,31.24L44.83,122.58Z"/></g><g class="aw"><path class="ah" d="M256.53,533l63.52-236.97,54.12,31.24-117.64,205.73Z"/></g><g class="af"><circle class="ay" cx="269.17" cy="266.67" r="121.21"/><circle class="ap" cx="269.17" cy="266.67" r="96.97"/></g><g class="bi"><path class="am" d="M269.17,142.42c-66.94,0-121.21,54.27-121.21,121.21v3.03c0-66.94,54.27-121.21,121.21-121.21h266.67v-3.03h-266.67Z"/><path class="ae" d="M374.02,327.27c-20.97,36.18-60.03,60.61-104.85,60.61s-83.91-24.42-104.88-60.61h-.12L2.5,49.94v3.03l161.7,277.33h.12c20.97,36.18,60.03,60.61,104.88,60.61s83.88-24.39,104.85-60.61h.15v-3.03h-.18Z"/><path class="ak" d="M272.2,145.45c-.52,0-1,.06-1.52.09,66.24.82,119.7,54.7,119.7,121.12s-53.45,120.3-119.7,121.12c.52,0,1,.09,1.52.09,66.94,0,121.21-54.27,121.21-121.21s-54.27-121.21-121.21-121.21Z"/><path class="bj" d="M375.23,331.3c10.3-17.82,16.27-38.42,16.27-60.48,0-12.79-2-25.09-5.67-36.64,2.88,10.36,4.55,21.24,4.55,32.52,0,22.06-5.97,42.67-16.27,60.48l.06.12-117.82,206.06h3.52l115.42-201.94-.06-.12Z"/></g><g class="bd"><path class="bj" d="M269.17,3.03c146.76,0,265.82,118.58,266.64,265.15,0-.52.03-1,.03-1.52C535.83,119.39,416.44,0,269.17,0S2.5,119.39,2.5,266.67c0,.52.03,1,.03,1.52C3.35,121.61,122.41,3.03,269.17,3.03Z"/><path class="ab" d="M269.17,530.3c146.76,0,265.82-118.58,266.64-265.15,0,.52.03,1,.03,1.52,0,147.27-119.39,266.67-266.67,266.67S2.5,413.94,2.5,266.67c0-.52.03-1,.03-1.52.82,146.58,119.88,265.15,266.64,265.15Z"/></g><circle class="au" cx="266.67" cy="266.67" r="266.67"/></g></svg>