<?xml version="1.0" encoding="UTF-8"?><svg id="a" xmlns="http://www.w3.org/2000/svg" xmlns:xlink="http://www.w3.org/1999/xlink" viewBox="0 0 512 512"><defs><style>.j{fill:#fff;}.k{filter:url(#d);}.l{fill:url(#b);}</style><linearGradient id="b" x1="409.62" y1="24.37" x2="114.27" y2="469.7" gradientUnits="userSpaceOnUse"><stop offset=".2" stop-color="#000430"/><stop offset=".27" stop-color="#080337"/><stop offset=".39" stop-color="#20034c"/><stop offset=".54" stop-color="#48026e"/><stop offset=".7" stop-color="#7e019e"/><stop offset=".89" stop-color="#c300d9"/><stop offset="1" stop-color="#e0f"/></linearGradient><filter id="d" x="-20" y="62" width="538" height="414" filterUnits="userSpaceOnUse"><feOffset dx="-7" dy="13"/><feGaussianBlur result="e" stdDeviation="14"/><feFlood flood-color="#000" flood-opacity=".69"/><feComposite in2="e" operator="in"/><feComposite in="SourceGraphic"/></filter></defs><rect id="c" class="l" width="512" height="512"/><g id="f" class="k"><path id="g" class="j" d="M366.64,195.31c-34.43-24.26-73.58-36.39-117.45-36.39s-83.02,12.13-117.45,36.39c-32.57,22.95-56.49,52.33-71.77,88.16-1.69,3.95-1.69,8.44,0,12.39,15.28,35.82,39.2,65.21,71.77,88.16,34.43,24.26,73.58,36.39,117.45,36.39s83.02-12.13,117.45-36.39c33.07-23.3,63.82-53.23,78.95-89.8,1.2-2.91,1.2-6.19,0-9.1-15.13-36.57-45.88-66.5-78.95-89.8ZM187.12,235.45c11.26-11.26,24.93-16.89,41.01-16.89s29.75,5.63,41.01,16.89c11.26,11.26,16.89,24.93,16.89,41.01s-5.63,29.75-16.89,41.01c-11.26,11.26-24.93,16.89-41.01,16.89s-29.75-5.63-41.01-16.89c-11.26-11.26-16.89-24.93-16.89-41.01s5.63-29.75,16.89-41.01ZM340.27,359.83c-27.31,17.14-57.67,25.71-91.08,25.71s-63.77-8.57-91.08-25.71c-25.26-15.86-45.06-37.06-59.38-63.6-2.21-4.09-2.22-9-.02-13.08,9.85-18.26,22.28-33.99,37.3-47.19,1.58-1.39,3.94.34,3.12,2.28-4.99,11.68-7.49,24.42-7.49,38.23,0,26.8,9.38,49.59,28.14,68.35,18.76,18.76,41.54,28.14,68.35,28.14s49.59-9.38,68.35-28.14,28.14-41.54,28.14-68.35-9.38-49.59-28.14-68.35c-2.04-2.04-4.13-3.96-6.26-5.77-1.6-1.36-.28-3.95,1.75-3.44,17.04,4.23,33.15,11.09,48.31,20.6,25.02,15.7,51.25,36.65,65.49,62.84,2.49,4.58,2.49,10.06,0,14.64-14.23,26.19-40.46,47.14-65.49,62.84Z"/><circle id="h" class="j" cx="249.19" cy="241.01" r="25.43"/><path id="i" class="j" d="M393.19,131.73c-41.83-24.26-93.52-40.13-146.82-40.13s-90.44,9.49-132.11,34.02c-30.49,17.95-56.02,38.41-78.59,67.4-5.69,7.31-7.44,16.94-4.79,25.82l10.23,34.21c.98,3.27,5.41,3.77,7.08.79,16.06-28.65,45.25-70.29,83.69-92.72,32.84-19.15,73.94-31.91,116.7-34.35,37.44-2.14,94.86,5.61,135.41,26.42,21.16,10.86,55.58,30.27,91.47,73.88,1.23,1.5,3.38,1.87,5.03.85h0c1.69-1.04,2.33-3.2,1.45-4.98-18.48-37.21-48.06-67.61-88.74-91.21Z"/></g></svg>