<?xml version="1.0" encoding="UTF-8"?><svg id="b" xmlns="http://www.w3.org/2000/svg" xmlns:xlink="http://www.w3.org/1999/xlink" viewBox="0 0 537.96 555.67"><defs><style>.p{fill:url(#k);}.q{fill:url(#d);}.r{fill:url(#l);}.s{fill:url(#h);}.t{fill:url(#o);}.u{fill:url(#j);}.v{fill:url(#g);}.w{fill:url(#m);}.x{fill:url(#e);}.y{fill:url(#i);}.z{fill:url(#f);}.aa{fill:url(#n);}</style><linearGradient id="d" x1="-81.67" y1="598.07" x2="-148.71" y2="533.4" gradientTransform="translate(1027.51 4074.84) scale(6.67 -6.67)" gradientUnits="userSpaceOnUse"><stop offset=".05" stop-color="#fff44f"/><stop offset=".11" stop-color="#ffe847"/><stop offset=".23" stop-color="#ffc830"/><stop offset=".37" stop-color="#ff980e"/><stop offset=".4" stop-color="#ff8b16"/><stop offset=".46" stop-color="#ff672a"/><stop offset=".53" stop-color="#ff3647"/><stop offset=".7" stop-color="#e31587"/></linearGradient><radialGradient id="e" cx="-8059.76" cy="9125.73" fx="-8059.76" fy="9125.73" r="84.18" gradientTransform="translate(54216.12 60924.96) scale(6.67 -6.67)" gradientUnits="userSpaceOnUse"><stop offset=".13" stop-color="#ffbd4f"/><stop offset=".19" stop-color="#ffac31"/><stop offset=".25" stop-color="#ff9d17"/><stop offset=".28" stop-color="#ff980e"/><stop offset=".4" stop-color="#ff563b"/><stop offset=".47" stop-color="#ff3750"/><stop offset=".71" stop-color="#f5156c"/><stop offset=".78" stop-color="#eb0878"/><stop offset=".86" stop-color="#e50080"/></radialGradient><radialGradient id="f" cx="-8090.52" cy="9091.31" fx="-8090.52" fy="9091.31" r="84.18" gradientTransform="translate(54216.12 60924.96) scale(6.67 -6.67)" gradientUnits="userSpaceOnUse"><stop offset=".3" stop-color="#960e18"/><stop offset=".35" stop-color="#b11927" stop-opacity=".74"/><stop offset=".43" stop-color="#db293d" stop-opacity=".34"/><stop offset=".5" stop-color="#f5334b" stop-opacity=".09"/><stop offset=".53" stop-color="#ff3750" stop-opacity="0"/></radialGradient><radialGradient id="g" cx="-8080.38" cy="9144.83" fx="-8080.38" fy="9144.83" r="60.98" gradientTransform="translate(54216.12 60924.96) scale(6.67 -6.67)" gradientUnits="userSpaceOnUse"><stop offset=".13" stop-color="#fff44f"/><stop offset=".25" stop-color="#ffdc3e"/><stop offset=".51" stop-color="#ff9d12"/><stop offset=".53" stop-color="#ff980e"/></radialGradient><radialGradient id="h" cx="-8099.84" cy="9069.32" fx="-8099.84" fy="9069.32" r="40.08" gradientTransform="translate(54216.12 60924.96) scale(6.67 -6.67)" gradientUnits="userSpaceOnUse"><stop offset=".35" stop-color="#3a8ee6"/><stop offset=".47" stop-color="#5c79f0"/><stop offset=".67" stop-color="#9059ff"/><stop offset="1" stop-color="#c139e6"/></radialGradient><radialGradient id="i" cx="-8085.34" cy="9104.65" fx="-8085.34" fy="9104.65" r="21.25" gradientTransform="translate(69401.09 56675.41) rotate(-13.59) scale(6.67 -7.81)" gradientUnits="userSpaceOnUse"><stop offset=".21" stop-color="#9059ff" stop-opacity="0"/><stop offset=".28" stop-color="#8c4ff3" stop-opacity=".06"/><stop offset=".75" stop-color="#7716a8" stop-opacity=".45"/><stop offset=".97" stop-color="#6e008b" stop-opacity=".6"/></radialGradient><radialGradient id="j" cx="-8091.59" cy="9129.17" fx="-8091.59" fy="9129.17" r="28.83" gradientTransform="translate(54216.12 60924.96) scale(6.67 -6.67)" gradientUnits="userSpaceOnUse"><stop offset="0" stop-color="#ffe226"/><stop offset=".12" stop-color="#ffdb27"/><stop offset=".29" stop-color="#ffc82a"/><stop offset=".5" stop-color="#ffa930"/><stop offset=".73" stop-color="#ff7e37"/><stop offset=".79" stop-color="#ff7139"/></radialGradient><radialGradient id="k" cx="-8068.92" cy="9147.46" fx="-8068.92" fy="9147.46" r="123.03" gradientTransform="translate(54216.12 60924.96) scale(6.67 -6.67)" gradientUnits="userSpaceOnUse"><stop offset=".11" stop-color="#fff44f"/><stop offset=".46" stop-color="#ff980e"/><stop offset=".62" stop-color="#ff5634"/><stop offset=".72" stop-color="#ff3647"/><stop offset=".9" stop-color="#e31587"/></radialGradient><radialGradient id="l" cx="-8069.5" cy="9077.89" fx="-8069.5" fy="9077.89" r="90.12" gradientTransform="translate(-33552.46 57689.64) rotate(83.98) scale(6.67 -4.38)" gradientUnits="userSpaceOnUse"><stop offset="0" stop-color="#fff44f"/><stop offset=".06" stop-color="#ffe847"/><stop offset=".17" stop-color="#ffc830"/><stop offset=".3" stop-color="#ff980e"/><stop offset=".36" stop-color="#ff8b16"/><stop offset=".46" stop-color="#ff672a"/><stop offset=".57" stop-color="#ff3647"/><stop offset=".74" stop-color="#e31587"/></radialGradient><radialGradient id="m" cx="-8092.27" cy="9118.49" fx="-8092.27" fy="9118.49" r="76.81" gradientTransform="translate(54216.12 60924.96) scale(6.67 -6.67)" gradientUnits="userSpaceOnUse"><stop offset=".14" stop-color="#fff44f"/><stop offset=".48" stop-color="#ff980e"/><stop offset=".59" stop-color="#ff5634"/><stop offset=".66" stop-color="#ff3647"/><stop offset=".9" stop-color="#e31587"/></radialGradient><radialGradient id="n" cx="-8071.99" cy="9114" fx="-8071.99" fy="9114" r="84.06" gradientTransform="translate(54216.12 60924.96) scale(6.67 -6.67)" gradientUnits="userSpaceOnUse"><stop offset=".09" stop-color="#fff44f"/><stop offset=".23" stop-color="#ffe141"/><stop offset=".51" stop-color="#ffaf1e"/><stop offset=".63" stop-color="#ff980e"/></radialGradient><linearGradient id="o" x1="-82.48" y1="598.42" x2="-139.52" y2="541.38" gradientTransform="translate(1027.51 4074.84) scale(6.67 -6.67)" gradientUnits="userSpaceOnUse"><stop offset=".17" stop-color="#fff44f" stop-opacity=".8"/><stop offset=".27" stop-color="#fff44f" stop-opacity=".63"/><stop offset=".49" stop-color="#fff44f" stop-opacity=".22"/><stop offset=".6" stop-color="#fff44f" stop-opacity="0"/></linearGradient></defs><g id="c"><path class="q" d="M518.48,186.41c-11.7-28.16-35.44-58.56-54.03-68.17,13.26,25.68,22.46,53.25,27.27,81.74l.05.45c-30.45-75.91-82.09-106.52-124.26-173.18-2.13-3.37-4.27-6.75-6.34-10.31-1.19-2.04-2.14-3.87-2.97-5.56-1.75-3.39-3.1-6.97-4.02-10.67,0-.35-.26-.65-.61-.69-.17-.05-.34-.05-.51,0-.03,0-.09.06-.13.08s-.13.08-.19.1l.1-.18c-67.65,39.61-90.6,112.93-92.71,149.61-27.01,1.86-52.84,11.81-74.11,28.57-2.22-1.88-4.54-3.64-6.95-5.27-6.14-21.48-6.4-44.21-.76-65.83-24.84,12.03-46.92,29.09-64.82,50.1h-.13c-10.67-13.53-9.92-58.14-9.31-67.46-3.16,1.27-6.17,2.87-8.99,4.77-9.42,6.72-18.23,14.27-26.32,22.55-9.22,9.35-17.64,19.45-25.18,30.21v.04-.05c-17.31,24.55-29.6,52.28-36.13,81.6l-.36,1.78c-.51,2.37-2.33,14.24-2.65,16.82,0,.2-.04.39-.06.59-2.36,12.25-3.82,24.66-4.37,37.13v1.39c.13,148.74,120.82,269.22,269.56,269.09,130.99-.11,242.91-94.46,265.17-223.55.45-3.47.82-6.91,1.22-10.42,5.55-45.85-.46-92.35-17.47-135.28h0ZM208.09,397.22c1.26.6,2.44,1.26,3.73,1.83l.19.12c-1.31-.63-2.61-1.28-3.92-1.95h0ZM491.8,200.5v-.26l.05.28-.05-.03Z"/><path class="x" d="M518.48,186.41c-11.7-28.16-35.44-58.56-54.03-68.17,13.26,25.68,22.46,53.25,27.27,81.74v.26l.05.28c20.76,59.4,17.76,124.53-8.38,181.76-30.87,66.23-105.58,134.11-222.53,130.81-126.36-3.58-237.65-97.34-258.45-220.16-3.79-19.37,0-29.18,1.9-44.92-2.6,12.23-4.05,24.67-4.33,37.16v1.39c.13,148.74,120.82,269.22,269.56,269.09,130.99-.11,242.91-94.46,265.17-223.55.45-3.47.82-6.91,1.22-10.42,5.55-45.85-.46-92.35-17.47-135.28h0Z"/><path class="z" d="M518.48,186.41c-11.7-28.16-35.44-58.56-54.03-68.17,13.26,25.68,22.46,53.25,27.27,81.74v.26l.05.28c20.76,59.4,17.76,124.53-8.38,181.76-30.87,66.23-105.58,134.11-222.53,130.81-126.36-3.58-237.65-97.34-258.45-220.16-3.79-19.37,0-29.18,1.9-44.92-2.6,12.23-4.05,24.67-4.33,37.16v1.39c.13,148.74,120.82,269.22,269.56,269.09,130.99-.11,242.91-94.46,265.17-223.55.45-3.47.82-6.91,1.22-10.42,5.55-45.85-.46-92.35-17.47-135.28h0Z"/><path class="v" d="M387.61,218.07c.58.41,1.13.82,1.67,1.23-6.76-12-15.19-22.98-25.02-32.62C280.57,102.96,342.33,5.16,352.75.19l.1-.15c-67.65,39.61-90.6,112.93-92.71,149.61,3.14-.22,6.25-.48,9.46-.48,48.86.09,93.91,26.4,118,68.91h0Z"/><path class="s" d="M269.78,234.79c-.44,6.7-24.11,29.8-32.39,29.8-76.58,0-89.01,46.33-89.01,46.33,3.39,39.01,30.57,71.14,63.43,88.14,1.5.78,3.02,1.48,4.54,2.17,2.64,1.17,5.27,2.25,7.91,3.24,11.28,3.99,23.09,6.27,35.04,6.76,134.23,6.3,160.23-160.51,63.37-208.92,22.85-2.97,45.99,2.65,64.94,15.77-24.09-42.51-69.14-68.82-118-68.91-3.2,0-6.32.26-9.46.48-27.01,1.86-52.84,11.81-74.11,28.57,4.11,3.47,8.74,8.12,18.5,17.74,18.28,18,65.14,36.65,65.25,38.84Z"/><path class="y" d="M269.78,234.79c-.44,6.7-24.11,29.8-32.39,29.8-76.58,0-89.01,46.33-89.01,46.33,3.39,39.01,30.57,71.14,63.43,88.14,1.5.78,3.02,1.48,4.54,2.17,2.64,1.17,5.27,2.25,7.91,3.24,11.28,3.99,23.09,6.27,35.04,6.76,134.23,6.3,160.23-160.51,63.37-208.92,22.85-2.97,45.99,2.65,64.94,15.77-24.09-42.51-69.14-68.82-118-68.91-3.2,0-6.32.26-9.46.48-27.01,1.86-52.84,11.81-74.11,28.57,4.11,3.47,8.74,8.12,18.5,17.74,18.28,18,65.14,36.65,65.25,38.84Z"/><path class="u" d="M173.47,169.25c2.18,1.39,3.98,2.6,5.56,3.69-6.14-21.48-6.4-44.21-.76-65.83-24.84,12.03-46.92,29.09-64.82,50.1,1.31-.03,40.38-.74,60.02,12.04Z"/><path class="p" d="M2.46,292.95c20.78,122.81,132.09,216.58,258.45,220.16,116.95,3.31,191.66-64.58,222.53-130.81,26.14-57.24,29.14-122.36,8.38-181.76v-.26c0-.2-.04-.32,0-.26l.05.45c9.55,62.38-22.17,122.81-71.77,163.68l-.15.35c-96.64,78.71-189.13,47.49-207.85,34.74-1.31-.63-2.61-1.28-3.92-1.95-56.35-26.93-79.63-78.27-74.64-122.3-27.33.4-52.33-15.32-63.8-40.13,30.08-18.43,67.56-19.93,99.01-3.97,31.89,14.48,68.19,15.91,101.12,3.97-.1-2.19-46.97-20.85-65.25-38.84-9.76-9.62-14.4-14.26-18.5-17.74-2.22-1.88-4.54-3.64-6.95-5.27-1.6-1.09-3.4-2.27-5.56-3.69-19.64-12.77-58.71-12.07-60-12.04h-.13c-10.67-13.53-9.92-58.14-9.31-67.46-3.16,1.27-6.17,2.87-8.99,4.77-9.42,6.72-18.23,14.27-26.32,22.55-9.25,9.32-17.71,19.4-25.28,30.14v.04-.05c-17.31,24.55-29.6,52.28-36.13,81.6-.13.55-9.7,42.38-4.98,64.07h0Z"/><path class="r" d="M364.29,186.68c9.83,9.66,18.25,20.65,25.02,32.66,1.48,1.12,2.86,2.23,4.04,3.31,61.06,56.28,29.07,135.85,26.68,141.51,49.6-40.87,81.3-101.3,71.77-163.68-30.46-75.95-82.1-106.56-124.27-173.21-2.13-3.37-4.27-6.75-6.34-10.31-1.19-2.04-2.14-3.87-2.97-5.56-1.75-3.39-3.1-6.97-4.02-10.67,0-.35-.26-.65-.61-.69-.17-.05-.34-.05-.51,0-.03,0-.09.06-.13.08s-.13.08-.19.1c-10.42,4.94-72.18,102.74,11.53,186.46h0Z"/><path class="w" d="M393.3,222.61c-1.17-1.08-2.56-2.19-4.04-3.31-.55-.41-1.09-.82-1.67-1.23-18.94-13.12-42.08-18.74-64.94-15.77,96.86,48.43,70.88,215.22-63.37,208.92-11.95-.49-23.76-2.77-35.04-6.76-2.64-.99-5.27-2.07-7.91-3.24-1.52-.69-3.04-1.39-4.54-2.17l.19.12c18.72,12.78,111.18,44,207.85-34.74l.15-.35c2.41-5.63,34.4-85.21-26.68-141.48Z"/><path class="aa" d="M148.38,310.92s12.43-46.33,89.01-46.33c8.28,0,31.96-23.1,32.39-29.8-32.93,11.93-69.22,10.5-101.12-3.97-31.46-15.96-68.94-14.45-99.01,3.97,11.47,24.81,36.47,40.53,63.8,40.13-4.99,44.03,18.29,95.37,74.64,122.3,1.26.6,2.44,1.26,3.73,1.83-32.89-16.99-60.04-49.12-63.43-88.13h0Z"/><path class="t" d="M518.48,186.41c-11.7-28.16-35.44-58.56-54.03-68.17,13.26,25.68,22.46,53.25,27.27,81.74l.05.45c-30.45-75.91-82.09-106.52-124.26-173.18-2.13-3.37-4.27-6.75-6.34-10.31-1.19-2.04-2.14-3.87-2.97-5.56-1.75-3.39-3.1-6.97-4.02-10.67,0-.35-.26-.65-.61-.69-.17-.05-.34-.05-.51,0-.03,0-.09.06-.13.08s-.13.08-.19.1l.1-.18c-67.65,39.61-90.6,112.93-92.71,149.61,3.14-.22,6.25-.48,9.46-.48,48.86.09,93.91,26.4,118,68.91-18.94-13.12-42.08-18.74-64.94-15.77,96.86,48.43,70.88,215.22-63.37,208.92-11.95-.49-23.76-2.77-35.04-6.76-2.64-.99-5.27-2.07-7.91-3.24-1.52-.69-3.04-1.39-4.54-2.17l.19.12c-1.31-.63-2.61-1.28-3.92-1.95,1.26.6,2.44,1.26,3.73,1.83-32.89-17-60.04-49.13-63.43-88.14,0,0,12.43-46.33,89.01-46.33,8.28,0,31.96-23.1,32.39-29.8-.1-2.19-46.97-20.85-65.25-38.84-9.76-9.62-14.4-14.26-18.5-17.74-2.22-1.88-4.54-3.64-6.95-5.27-6.14-21.48-6.4-44.21-.76-65.83-24.84,12.03-46.92,29.09-64.82,50.1h-.13c-10.67-13.53-9.92-58.14-9.31-67.46-3.16,1.27-6.17,2.87-8.99,4.77-9.42,6.72-18.23,14.27-26.32,22.55-9.22,9.35-17.64,19.45-25.18,30.21v.04-.05c-17.31,24.55-29.6,52.28-36.13,81.6l-.36,1.78c-.51,2.37-2.78,14.4-3.11,16.99,0,.19,0-.2,0,0-2.08,12.42-3.41,24.96-3.97,37.54v1.39c.13,148.74,120.82,269.22,269.56,269.09,130.99-.11,242.91-94.46,265.17-223.55.45-3.47.82-6.91,1.22-10.42,5.55-45.85-.46-92.35-17.47-135.28h0ZM491.77,200.25l.05.28-.05-.28Z"/></g></svg>