<?xml version="1.0" encoding="utf-8"?>
<!-- Generator: Adobe Illustrator 16.0.3, SVG Export Plug-In . SVG Version: 6.00 Build 0)  -->
<!DOCTYPE svg PUBLIC "-//W3C//DTD SVG 1.1//EN" "http://www.w3.org/Graphics/SVG/1.1/DTD/svg11.dtd" [
	<!ENTITY st0 "fill:#FFFFFF;">
]>
<svg version="1.1" id="Layer_1" xmlns="http://www.w3.org/2000/svg" xmlns:xlink="http://www.w3.org/1999/xlink" x="0px" y="0px"
	 width="17.876px" height="18.612px" viewBox="0 0 17.876 18.612" style="enable-background:new 0 0 17.876 18.612;"
	 xml:space="preserve">
<g>
	<path style="&st0;" d="M0,0h1.081v6.752h0.036c0.432-0.918,1.495-1.675,2.845-1.675c2.593,0,3.169,1.765,3.169,3.583v4.952H6.05
		V8.714c0-1.351-0.378-2.665-2.088-2.665c-1.603,0-2.881,1.116-2.881,3.403v4.159H0V0z"/>
	<path style="&st0;" d="M15.355,12.995H15.32c-0.433,0.359-1.279,0.539-1.891,0.539c-2.27,0-3.907-1.729-3.907-3.924
		c0-2.305,1.765-3.961,4.177-3.961c2.413,0,4.178,1.657,4.178,3.961c0,1.333-0.666,2.413-1.17,3.258l-3.457,5.744H11.88
		L15.355,12.995z M16.688,9.609c0-1.765-1.225-2.989-2.989-2.989c-1.764,0-2.988,1.225-2.988,2.989c0,1.657,1.332,2.989,2.988,2.989
		S16.688,11.266,16.688,9.609z"/>
</g>
</svg>
